<svg width="29" height="30" viewBox="0 0 29 30" fill="none" xmlns="http://www.w3.org/2000/svg">
<g clip-path="url(#clip0_536_276)">
<path d="M14.5 0.361328C6.49187 0.361328 0 6.8532 0 14.8613C0 22.8695 6.49187 29.3613 14.5 29.3613C22.5081 29.3613 29 22.8695 29 14.8613C29 6.8532 22.5081 0.361328 14.5 0.361328ZM17.9692 5.77935C19.1085 5.78986 20.181 6.3007 21.1889 7.30864C22.3082 8.45433 22.9506 9.91726 22.5324 11.608C22.2935 12.5039 21.7273 13.4193 20.8314 14.3551C18.1176 17.0167 15.6773 19.4964 12.5583 22.5981C11.9617 23.1843 10.8958 23.8999 9.81123 23.9433C8.90919 23.9363 8.18199 23.5653 7.5102 22.8972C6.79552 22.1734 6.26702 21.2322 6.34554 20.0599C6.44508 19.2237 6.85362 18.4473 7.5704 17.7305L14.5301 10.7726C15.5587 9.75305 17.0064 8.96384 18.3817 10.1442C19.6252 11.4324 18.8309 12.8268 17.725 13.9675L11.3034 20.359L10.0785 19.104L16.4701 12.7125C16.762 12.4194 17.3585 11.9067 17.1267 11.3691C16.8247 11.0964 16.1012 11.7073 15.7833 12.0257L8.82533 18.9855C8.47735 19.336 8.17474 19.7044 8.10847 20.2386C8.04873 20.6965 8.25722 21.1644 8.73507 21.6422C9.66145 22.5014 10.3062 22.256 11.3033 21.3449C13.9565 18.6917 16.0858 16.5855 18.8153 13.863C19.7126 12.9657 20.3611 12.4001 20.8314 11.1601C21.2023 9.76255 19.767 7.77554 18.1427 7.54753C17.0766 7.44806 16.147 8.14802 15.3656 8.89098L7.74914 16.5057L6.49598 15.2826L14.1106 7.63612C15.3052 6.46145 16.5147 5.84441 17.7391 5.78469C17.8157 5.78094 17.8933 5.77867 17.9692 5.77935Z" fill="#4B65A2"/>
</g>
<defs>
<clipPath id="clip0_536_276">
<rect width="29" height="29" fill="white" transform="translate(0 0.361328)"/>
</clipPath>
</defs>
</svg>
