<svg width="29" height="30" viewBox="0 0 29 30" fill="none" xmlns="http://www.w3.org/2000/svg">
<g clip-path="url(#clip0_529_538)">
<path d="M14.5 0.498779C6.49187 0.498779 0 6.99065 0 14.9988C0 23.0069 6.49187 29.4988 14.5 29.4988C22.5081 29.4988 29 23.0069 29 14.9988C29 6.99065 22.5081 0.498779 14.5 0.498779ZM17.9692 5.9168C19.1085 5.92731 20.181 6.43815 21.1889 7.44609C22.3082 8.59179 22.9506 10.0547 22.5324 11.7455C22.2935 12.6414 21.7273 13.5568 20.8314 14.4925C18.1176 17.1542 15.6773 19.6338 12.5583 22.7355C11.9617 23.3217 10.8958 24.0373 9.81123 24.0808C8.90919 24.0737 8.18199 23.7028 7.5102 23.0347C6.79552 22.3109 6.26702 21.3697 6.34554 20.1974C6.44508 19.3611 6.85362 18.5847 7.5704 17.868L14.5301 10.91C15.5587 9.8905 17.0064 9.10129 18.3817 10.2817C19.6252 11.5698 18.8309 12.9643 17.725 14.1049L11.3034 20.4965L10.0785 19.2415L16.4701 12.85C16.762 12.5568 17.3585 12.0441 17.1267 11.5065C16.8247 11.2338 16.1012 11.8447 15.7833 12.1632L8.82533 19.1229C8.47735 19.4734 8.17474 19.8418 8.10847 20.3761C8.04873 20.834 8.25722 21.3019 8.73507 21.7797C9.66145 22.6389 10.3062 22.3935 11.3033 21.4823C13.9565 18.8291 16.0858 16.723 18.8153 14.0004C19.7126 13.1031 20.3611 12.5376 20.8314 11.2976C21.2023 9.9 19.767 7.91299 18.1427 7.68498C17.0766 7.58551 16.147 8.28547 15.3656 9.02843L7.74914 16.6431L6.49598 15.4201L14.1106 7.77357C15.3052 6.59891 16.5147 5.98186 17.7391 5.92214C17.8157 5.9184 17.8933 5.91612 17.9692 5.9168Z" fill="#4B65A2"/>
</g>
<defs>
<clipPath id="clip0_529_538">
<rect width="29" height="29" fill="white" transform="translate(0 0.498779)"/>
</clipPath>
</defs>
</svg>
