<svg width="29" height="30" viewBox="0 0 29 30" fill="none" xmlns="http://www.w3.org/2000/svg">
<g clip-path="url(#clip0_529_528)">
<path d="M14.5 0.749023C6.49187 0.749023 0 7.24089 0 15.249C0 23.2572 6.49187 29.749 14.5 29.749C22.5081 29.749 29 23.2572 29 15.249C29 7.24089 22.5081 0.749023 14.5 0.749023ZM17.9692 6.16705C19.1085 6.17756 20.181 6.68839 21.1889 7.69634C22.3082 8.84203 22.9506 10.305 22.5324 11.9957C22.2935 12.8916 21.7273 13.807 20.8314 14.7428C18.1176 17.4044 15.6773 19.8841 12.5583 22.9858C11.9617 23.572 10.8958 24.2876 9.81123 24.331C8.90919 24.3239 8.18199 23.953 7.5102 23.2849C6.79552 22.5611 6.26702 21.6199 6.34554 20.4476C6.44508 19.6113 6.85362 18.835 7.5704 18.1182L14.5301 11.1603C15.5587 10.1407 17.0064 9.35153 18.3817 10.5319C19.6252 11.8201 18.8309 13.2145 17.725 14.3552L11.3034 20.7467L10.0785 19.4917L16.4701 13.1002C16.762 12.8071 17.3585 12.2944 17.1267 11.7567C16.8247 11.4841 16.1012 12.095 15.7833 12.4134L8.82533 19.3732C8.47735 19.7236 8.17474 20.092 8.10847 20.6263C8.04873 21.0842 8.25722 21.5521 8.73507 22.0299C9.66145 22.8891 10.3062 22.6437 11.3033 21.7326C13.9565 19.0794 16.0858 16.9732 18.8153 14.2506C19.7126 13.3534 20.3611 12.7878 20.8314 11.5478C21.2023 10.1502 19.767 8.16324 18.1427 7.93522C17.0766 7.83575 16.147 8.53572 15.3656 9.27867L7.74914 16.8934L6.49598 15.6703L14.1106 8.02382C15.3052 6.84915 16.5147 6.2321 17.7391 6.17239C17.8157 6.16864 17.8933 6.16637 17.9692 6.16705Z" fill="#4B65A2"/>
</g>
<defs>
<clipPath id="clip0_529_528">
<rect width="29" height="29" fill="white" transform="translate(0 0.749023)"/>
</clipPath>
</defs>
</svg>
