<svg width="29" height="30" viewBox="0 0 29 30" fill="none" xmlns="http://www.w3.org/2000/svg">
<g clip-path="url(#clip0_529_578)">
<path d="M14.5 0.498047C6.49187 0.498047 0 6.98991 0 14.998C0 23.0062 6.49187 29.498 14.5 29.498C22.5081 29.498 29 23.0062 29 14.998C29 6.98991 22.5081 0.498047 14.5 0.498047ZM17.9692 5.91607C19.1085 5.92658 20.181 6.43742 21.1889 7.44536C22.3082 8.59105 22.9506 10.054 22.5324 11.7447C22.2935 12.6407 21.7273 13.556 20.8314 14.4918C18.1176 17.1534 15.6773 19.6331 12.5583 22.7348C11.9617 23.321 10.8958 24.0366 9.81123 24.08C8.90919 24.073 8.18199 23.7021 7.5102 23.0339C6.79552 22.3102 6.26702 21.369 6.34554 20.1966C6.44508 19.3604 6.85362 18.584 7.5704 17.8673L14.5301 10.9093C15.5587 9.88977 17.0064 9.10056 18.3817 10.281C19.6252 11.5691 18.8309 12.9635 17.725 14.1042L11.3034 20.4957L10.0785 19.2407L16.4701 12.8492C16.762 12.5561 17.3585 12.0434 17.1267 11.5058C16.8247 11.2331 16.1012 11.844 15.7833 12.1625L8.82533 19.1222C8.47735 19.4727 8.17474 19.8411 8.10847 20.3753C8.04873 20.8332 8.25722 21.3011 8.73507 21.7789C9.66145 22.6381 10.3062 22.3927 11.3033 21.4816C13.9565 18.8284 16.0858 16.7222 18.8153 13.9997C19.7126 13.1024 20.3611 12.5368 20.8314 11.2968C21.2023 9.89927 19.767 7.91226 18.1427 7.68425C17.0766 7.58478 16.147 8.28474 15.3656 9.0277L7.74914 16.6424L6.49598 15.4193L14.1106 7.77284C15.3052 6.59817 16.5147 5.98112 17.7391 5.92141C17.8157 5.91766 17.8933 5.91539 17.9692 5.91607Z" fill="#4B65A2"/>
</g>
<defs>
<clipPath id="clip0_529_578">
<rect width="29" height="29" fill="white" transform="translate(0 0.498047)"/>
</clipPath>
</defs>
</svg>
