<svg width="29" height="29" viewBox="0 0 29 29" fill="none" xmlns="http://www.w3.org/2000/svg">
<g clip-path="url(#clip0_529_518)">
<path d="M14.5 -0.000732422C6.49187 -0.000732422 0 6.49113 0 14.4993C0 22.5074 6.49187 28.9993 14.5 28.9993C22.5081 28.9993 29 22.5074 29 14.4993C29 6.49113 22.5081 -0.000732422 14.5 -0.000732422ZM17.9692 5.41729C19.1085 5.4278 20.181 5.93864 21.1889 6.94658C22.3082 8.09227 22.9506 9.5552 22.5324 11.246C22.2935 12.1419 21.7273 13.0573 20.8314 13.993C18.1176 16.6546 15.6773 19.1343 12.5583 22.236C11.9617 22.8222 10.8958 23.5378 9.81123 23.5812C8.90919 23.5742 8.18199 23.2033 7.5102 22.5352C6.79552 21.8114 6.26702 20.8702 6.34554 19.6979C6.44508 18.8616 6.85362 18.0852 7.5704 17.3685L14.5301 10.4105C15.5587 9.39099 17.0064 8.60178 18.3817 9.78218C19.6252 11.0703 18.8309 12.4647 17.725 13.6054L11.3034 19.9969L10.0785 18.742L16.4701 12.3504C16.762 12.0573 17.3585 11.5446 17.1267 11.007C16.8247 10.7343 16.1012 11.3452 15.7833 11.6637L8.82533 18.6234C8.47735 18.9739 8.17474 19.3423 8.10847 19.8765C8.04873 20.3345 8.25722 20.8024 8.73507 21.2802C9.66145 22.1394 10.3062 21.894 11.3033 20.9828C13.9565 18.3296 16.0858 16.2235 18.8153 13.5009C19.7126 12.6036 20.3611 12.0381 20.8314 10.7981C21.2023 9.40049 19.767 7.41348 18.1427 7.18547C17.0766 7.086 16.147 7.78596 15.3656 8.52892L7.74914 16.1436L6.49598 14.9205L14.1106 7.27406C15.3052 6.09939 16.5147 5.48235 17.7391 5.42263C17.8157 5.41888 17.8933 5.41661 17.9692 5.41729Z" fill="#4B65A2"/>
</g>
<defs>
<clipPath id="clip0_529_518">
<rect width="29" height="29" fill="white" transform="translate(0 -0.000732422)"/>
</clipPath>
</defs>
</svg>
