<svg width="29" height="30" viewBox="0 0 29 30" fill="none" xmlns="http://www.w3.org/2000/svg">
<g clip-path="url(#clip0_529_508)">
<path d="M14.5 0.24939C6.49187 0.24939 0 6.74126 0 14.7494C0 22.7575 6.49187 29.2494 14.5 29.2494C22.5081 29.2494 29 22.7575 29 14.7494C29 6.74126 22.5081 0.24939 14.5 0.24939ZM17.9692 5.66741C19.1085 5.67792 20.181 6.18876 21.1889 7.1967C22.3082 8.3424 22.9506 9.80532 22.5324 11.4961C22.2935 12.392 21.7273 13.3074 20.8314 14.2431C18.1176 16.9048 15.6773 19.3844 12.5583 22.4862C11.9617 23.0723 10.8958 23.7879 9.81123 23.8314C8.90919 23.8243 8.18199 23.4534 7.5102 22.7853C6.79552 22.0615 6.26702 21.1203 6.34554 19.948C6.44508 19.1117 6.85362 18.3354 7.5704 17.6186L14.5301 10.6607C15.5587 9.64111 17.0064 8.8519 18.3817 10.0323C19.6252 11.3205 18.8309 12.7149 17.725 13.8555L11.3034 20.2471L10.0785 18.9921L16.4701 12.6006C16.762 12.3074 17.3585 11.7947 17.1267 11.2571C16.8247 10.9844 16.1012 11.5953 15.7833 11.9138L8.82533 18.8735C8.47735 19.224 8.17474 19.5924 8.10847 20.1267C8.04873 20.5846 8.25722 21.0525 8.73507 21.5303C9.66145 22.3895 10.3062 22.1441 11.3033 21.2329C13.9565 18.5797 16.0858 16.4736 18.8153 13.751C19.7126 12.8537 20.3611 12.2882 20.8314 11.0482C21.2023 9.65061 19.767 7.6636 18.1427 7.43559C17.0766 7.33612 16.147 8.03608 15.3656 8.77904L7.74914 16.3937L6.49598 15.1707L14.1106 7.52418C15.3052 6.34952 16.5147 5.73247 17.7391 5.67275C17.8157 5.66901 17.8933 5.66673 17.9692 5.66741Z" fill="#4B65A2"/>
</g>
<defs>
<clipPath id="clip0_529_508">
<rect width="29" height="29" fill="white" transform="translate(0 0.24939)"/>
</clipPath>
</defs>
</svg>
