<svg width="29" height="30" viewBox="0 0 29 30" fill="none" xmlns="http://www.w3.org/2000/svg">
<g clip-path="url(#clip0_529_588)">
<path d="M14.5 0.247925C6.49187 0.247925 0 6.73979 0 14.7479C0 22.7561 6.49187 29.2479 14.5 29.2479C22.5081 29.2479 29 22.7561 29 14.7479C29 6.73979 22.5081 0.247925 14.5 0.247925ZM17.9692 5.66595C19.1085 5.67646 20.181 6.18729 21.1889 7.19524C22.3082 8.34093 22.9506 9.80386 22.5324 11.4946C22.2935 12.3905 21.7273 13.3059 20.8314 14.2417C18.1176 16.9033 15.6773 19.383 12.5583 22.4847C11.9617 23.0709 10.8958 23.7865 9.81123 23.8299C8.90919 23.8228 8.18199 23.4519 7.5102 22.7838C6.79552 22.06 6.26702 21.1188 6.34554 19.9465C6.44508 19.1103 6.85362 18.3339 7.5704 17.6171L14.5301 10.6592C15.5587 9.63965 17.0064 8.85044 18.3817 10.0308C19.6252 11.319 18.8309 12.7134 17.725 13.8541L11.3034 20.2456L10.0785 18.9906L16.4701 12.5991C16.762 12.306 17.3585 11.7933 17.1267 11.2556C16.8247 10.983 16.1012 11.5939 15.7833 11.9123L8.82533 18.8721C8.47735 19.2226 8.17474 19.5909 8.10847 20.1252C8.04873 20.5831 8.25722 21.051 8.73507 21.5288C9.66145 22.388 10.3062 22.1426 11.3033 21.2315C13.9565 18.5783 16.0858 16.4721 18.8153 13.7496C19.7126 12.8523 20.3611 12.2867 20.8314 11.0467C21.2023 9.64914 19.767 7.66214 18.1427 7.43412C17.0766 7.33465 16.147 8.03462 15.3656 8.77757L7.74914 16.3923L6.49598 15.1692L14.1106 7.52272C15.3052 6.34805 16.5147 5.731 17.7391 5.67129C17.8157 5.66754 17.8933 5.66527 17.9692 5.66595Z" fill="#4B65A2"/>
</g>
<defs>
<clipPath id="clip0_529_588">
<rect width="29" height="29" fill="white" transform="translate(0 0.247925)"/>
</clipPath>
</defs>
</svg>
