<svg width="24" height="25" viewBox="0 0 24 25" fill="none" xmlns="http://www.w3.org/2000/svg">
<path fill-rule="evenodd" clip-rule="evenodd" d="M12 24.749C13.5759 24.749 15.1363 24.4386 16.5922 23.8356C18.0481 23.2325 19.371 22.3486 20.4853 21.2343C21.5996 20.12 22.4835 18.7971 23.0866 17.3412C23.6896 15.8853 24 14.3249 24 12.749C24 11.1732 23.6896 9.61273 23.0866 8.15682C22.4835 6.70092 21.5996 5.37805 20.4853 4.26374C19.371 3.14944 18.0481 2.26553 16.5922 1.66247C15.1363 1.05941 13.5759 0.749023 12 0.749023C8.8174 0.749023 5.76516 2.01331 3.51472 4.26374C1.26428 6.51418 0 9.56643 0 12.749C0 15.9316 1.26428 18.9839 3.51472 21.2343C5.76516 23.4847 8.8174 24.749 12 24.749ZM11.6907 17.6024L18.3573 9.60236L16.3093 7.89569L10.576 14.7744L7.60933 11.8064L5.724 13.6917L9.724 17.6917L10.756 18.7237L11.6907 17.6024Z" fill="#4B65A2"/>
</svg>
