<svg width="24" height="25" viewBox="0 0 24 25" fill="none" xmlns="http://www.w3.org/2000/svg">
<path fill-rule="evenodd" clip-rule="evenodd" d="M12 24.7498C13.5759 24.7498 15.1363 24.4394 16.5922 23.8363C18.0481 23.2333 19.371 22.3493 20.4853 21.235C21.5996 20.1207 22.4835 18.7979 23.0866 17.342C23.6896 15.8861 24 14.3256 24 12.7498C24 11.1739 23.6896 9.61346 23.0866 8.15755C22.4835 6.70165 21.5996 5.37878 20.4853 4.26447C19.371 3.15017 18.0481 2.26626 16.5922 1.6632C15.1363 1.06014 13.5759 0.749756 12 0.749756C8.8174 0.749756 5.76516 2.01404 3.51472 4.26447C1.26428 6.51491 0 9.56716 0 12.7498C0 15.9324 1.26428 18.9846 3.51472 21.235C5.76516 23.4855 8.8174 24.7498 12 24.7498ZM11.6907 17.6031L18.3573 9.60309L16.3093 7.89642L10.576 14.7751L7.60933 11.8071L5.724 13.6924L9.724 17.6924L10.756 18.7244L11.6907 17.6031Z" fill="#4B65A2"/>
</svg>
