<svg width="24" height="25" viewBox="0 0 24 25" fill="none" xmlns="http://www.w3.org/2000/svg">
<path fill-rule="evenodd" clip-rule="evenodd" d="M12 24.2487C13.5759 24.2487 15.1363 23.9383 16.5922 23.3352C18.0481 22.7322 19.371 21.8482 20.4853 20.7339C21.5996 19.6196 22.4835 18.2968 23.0866 16.8409C23.6896 15.385 24 13.8245 24 12.2487C24 10.6728 23.6896 9.11236 23.0866 7.65646C22.4835 6.20055 21.5996 4.87768 20.4853 3.76338C19.371 2.64907 18.0481 1.76516 16.5922 1.1621C15.1363 0.559046 13.5759 0.248657 12 0.248657C8.8174 0.248657 5.76516 1.51294 3.51472 3.76338C1.26428 6.01381 0 9.06606 0 12.2487C0 15.4313 1.26428 18.4835 3.51472 20.7339C5.76516 22.9844 8.8174 24.2487 12 24.2487ZM11.6907 17.102L18.3573 9.10199L16.3093 7.39532L10.576 14.274L7.60933 11.306L5.724 13.1913L9.724 17.1913L10.756 18.2233L11.6907 17.102Z" fill="#4B65A2"/>
</svg>
