<svg width="24" height="25" viewBox="0 0 24 25" fill="none" xmlns="http://www.w3.org/2000/svg">
<path fill-rule="evenodd" clip-rule="evenodd" d="M12 24.2494C13.5759 24.2494 15.1363 23.939 16.5922 23.3359C18.0481 22.7329 19.371 21.849 20.4853 20.7347C21.5996 19.6204 22.4835 18.2975 23.0866 16.8416C23.6896 15.3857 24 13.8253 24 12.2494C24 10.6735 23.6896 9.1131 23.0866 7.65719C22.4835 6.20128 21.5996 4.87841 20.4853 3.76411C19.371 2.64981 18.0481 1.76589 16.5922 1.16284C15.1363 0.559779 13.5759 0.24939 12 0.24939C8.8174 0.24939 5.76516 1.51367 3.51472 3.76411C1.26428 6.01454 0 9.06679 0 12.2494C0 15.432 1.26428 18.4842 3.51472 20.7347C5.76516 22.9851 8.8174 24.2494 12 24.2494ZM11.6907 17.1027L18.3573 9.10272L16.3093 7.39606L10.576 14.2747L7.60933 11.3067L5.724 13.1921L9.724 17.1921L10.756 18.2241L11.6907 17.1027Z" fill="#4B65A2"/>
</svg>
