<svg width="24" height="25" viewBox="0 0 24 25" fill="none" xmlns="http://www.w3.org/2000/svg">
<path fill-rule="evenodd" clip-rule="evenodd" d="M12 24.4996C13.5759 24.4996 15.1363 24.1892 16.5922 23.5862C18.0481 22.9831 19.371 22.0992 20.4853 20.9849C21.5996 19.8706 22.4835 18.5477 23.0866 17.0918C23.6896 15.6359 24 14.0755 24 12.4996C24 10.9238 23.6896 9.36334 23.0866 7.90743C22.4835 6.45153 21.5996 5.12866 20.4853 4.01435C19.371 2.90005 18.0481 2.01614 16.5922 1.41308C15.1363 0.810023 13.5759 0.499634 12 0.499634C8.8174 0.499634 5.76516 1.76392 3.51472 4.01435C1.26428 6.26479 0 9.31704 0 12.4996C0 15.6822 1.26428 18.7345 3.51472 20.9849C5.76516 23.2354 8.8174 24.4996 12 24.4996ZM11.6907 17.353L18.3573 9.35297L16.3093 7.6463L10.576 14.525L7.60933 11.557L5.724 13.4423L9.724 17.4423L10.756 18.4743L11.6907 17.353Z" fill="#4B65A2"/>
</svg>
