<svg width="24" height="24" viewBox="0 0 24 24" fill="none" xmlns="http://www.w3.org/2000/svg">
<path fill-rule="evenodd" clip-rule="evenodd" d="M12 23.9993C13.5759 23.9993 15.1363 23.6889 16.5922 23.0858C18.0481 22.4828 19.371 21.5989 20.4853 20.4845C21.5996 19.3702 22.4835 18.0474 23.0866 16.5915C23.6896 15.1356 24 13.5751 24 11.9993C24 10.4234 23.6896 8.86297 23.0866 7.40707C22.4835 5.95116 21.5996 4.62829 20.4853 3.51399C19.371 2.39968 18.0481 1.51577 16.5922 0.912713C15.1363 0.309657 13.5759 -0.000732445 12 -0.000732422C8.8174 -0.000732374 5.76516 1.26355 3.51472 3.51399C1.26428 5.76442 0 8.81667 0 11.9993C0 15.1819 1.26428 18.2341 3.51472 20.4845C5.76516 22.735 8.8174 23.9993 12 23.9993ZM11.6907 16.8526L18.3573 8.8526L16.3093 7.14593L10.576 14.0246L7.60933 11.0566L5.724 12.9419L9.724 16.9419L10.756 17.9739L11.6907 16.8526Z" fill="#4B65A2"/>
</svg>
