<svg width="24" height="25" viewBox="0 0 24 25" fill="none" xmlns="http://www.w3.org/2000/svg">
<path fill-rule="evenodd" clip-rule="evenodd" d="M12 24.7483C13.5759 24.7483 15.1363 24.4379 16.5922 23.8348C18.0481 23.2318 19.371 22.3479 20.4853 21.2336C21.5996 20.1193 22.4835 18.7964 23.0866 17.3405C23.6896 15.8846 24 14.3242 24 12.7483C24 11.1724 23.6896 9.612 23.0866 8.15609C22.4835 6.70018 21.5996 5.37731 20.4853 4.26301C19.371 3.14871 18.0481 2.26479 16.5922 1.66174C15.1363 1.05868 13.5759 0.748291 12 0.748291C8.8174 0.748291 5.76516 2.01257 3.51472 4.26301C1.26428 6.51345 0 9.56569 0 12.7483C0 15.9309 1.26428 18.9831 3.51472 21.2336C5.76516 23.484 8.8174 24.7483 12 24.7483ZM11.6907 17.6016L18.3573 9.60163L16.3093 7.89496L10.576 14.7736L7.60933 11.8056L5.724 13.691L9.724 17.691L10.756 18.723L11.6907 17.6016Z" fill="#4B65A2"/>
</svg>
