<svg width="24" height="25" viewBox="0 0 24 25" fill="none" xmlns="http://www.w3.org/2000/svg">
<path fill-rule="evenodd" clip-rule="evenodd" d="M12 24.498C13.5759 24.498 15.1363 24.1877 16.5922 23.5846C18.0481 22.9815 19.371 22.0976 20.4853 20.9833C21.5996 19.869 22.4835 18.5462 23.0866 17.0902C23.6896 15.6343 24 14.0739 24 12.498C24 10.9222 23.6896 9.36175 23.0866 7.90585C22.4835 6.44994 21.5996 5.12707 20.4853 4.01277C19.371 2.89846 18.0481 2.01455 16.5922 1.41149C15.1363 0.808436 13.5759 0.498047 12 0.498047C8.8174 0.498047 5.76516 1.76233 3.51472 4.01277C1.26428 6.2632 0 9.31545 0 12.498C0 15.6806 1.26428 18.7329 3.51472 20.9833C5.76516 23.2338 8.8174 24.498 12 24.498ZM11.6907 17.3514L18.3573 9.35138L16.3093 7.64471L10.576 14.5234L7.60933 11.5554L5.724 13.4407L9.724 17.4407L10.756 18.4727L11.6907 17.3514Z" fill="#4B65A2"/>
</svg>
