<svg width="24" height="25" viewBox="0 0 24 25" fill="none" xmlns="http://www.w3.org/2000/svg">
<path fill-rule="evenodd" clip-rule="evenodd" d="M12 24.4988C13.5759 24.4988 15.1363 24.1884 16.5922 23.5853C18.0481 22.9823 19.371 22.0984 20.4853 20.9841C21.5996 19.8698 22.4835 18.5469 23.0866 17.091C23.6896 15.6351 24 14.0746 24 12.4988C24 10.9229 23.6896 9.36248 23.0866 7.90658C22.4835 6.45067 21.5996 5.1278 20.4853 4.0135C19.371 2.89919 18.0481 2.01528 16.5922 1.41222C15.1363 0.809168 13.5759 0.498779 12 0.498779C8.8174 0.498779 5.76516 1.76306 3.51472 4.0135C1.26428 6.26393 0 9.31618 0 12.4988C0 15.6814 1.26428 18.7336 3.51472 20.9841C5.76516 23.2345 8.8174 24.4988 12 24.4988ZM11.6907 17.3521L18.3573 9.35211L16.3093 7.64545L10.576 14.5241L7.60933 11.5561L5.724 13.4414L9.724 17.4414L10.756 18.4734L11.6907 17.3521Z" fill="#4B65A2"/>
</svg>
