<svg width="24" height="24" viewBox="0 0 24 24" fill="none" xmlns="http://www.w3.org/2000/svg">
<path fill-rule="evenodd" clip-rule="evenodd" d="M12 23.9985C13.5759 23.9985 15.1363 23.6881 16.5922 23.0851C18.0481 22.482 19.371 21.5981 20.4853 20.4838C21.5996 19.3695 22.4835 18.0466 23.0866 16.5907C23.6896 15.1348 24 13.5744 24 11.9985C24 10.4227 23.6896 8.86224 23.0866 7.40633C22.4835 5.95043 21.5996 4.62756 20.4853 3.51325C19.371 2.39895 18.0481 1.51504 16.5922 0.911981C15.1363 0.308924 13.5759 -0.00146487 12 -0.00146484C8.8174 -0.0014648 5.76516 1.26282 3.51472 3.51325C1.26428 5.76369 0 8.81594 0 11.9985C0 15.1811 1.26428 18.2334 3.51472 20.4838C5.76516 22.7343 8.8174 23.9985 12 23.9985ZM11.6907 16.8519L18.3573 8.85187L16.3093 7.1452L10.576 14.0239L7.60933 11.0559L5.724 12.9412L9.724 16.9412L10.756 17.9732L11.6907 16.8519Z" fill="#4B65A2"/>
</svg>
