<svg width="30" height="30" viewBox="0 0 30 30" fill="none" xmlns="http://www.w3.org/2000/svg">
<g opacity="0.5" clip-path="url(#clip0_278_129)">
<path d="M2.56252 12.9837C2.18018 12.8759 1.84245 12.6483 1.59886 12.3345C1.35527 12.0207 1.21863 11.6371 1.20898 11.2399C1.19934 10.8428 1.31719 10.453 1.54526 10.1277C1.77333 9.80241 2.09961 9.55876 2.47627 9.43246L27.565 1.24996C27.7294 1.19639 27.9053 1.18923 28.0735 1.22928C28.2416 1.26933 28.3955 1.35503 28.518 1.47694C28.6406 1.59884 28.7271 1.75222 28.768 1.92016C28.809 2.0881 28.8027 2.26408 28.75 2.42871L20.5738 27.53C20.448 27.9073 20.2045 28.2343 19.8791 28.4628C19.5536 28.6914 19.1634 28.8095 18.7658 28.7997C18.3682 28.7899 17.9843 28.6527 17.6704 28.4084C17.3566 28.1641 17.1295 27.8255 17.0225 27.4425L14.215 15.7787L2.56252 12.9837Z" stroke="black" stroke-width="3" stroke-linecap="round" stroke-linejoin="round"/>
<path d="M28.5188 1.47498L14.215 15.7787" stroke="black" stroke-width="3" stroke-linecap="round" stroke-linejoin="round"/>
</g>
<defs>
<clipPath id="clip0_278_129">
<rect width="30" height="30" fill="white"/>
</clipPath>
</defs>
</svg>
