<svg width="38" height="38" viewBox="0 0 38 38" fill="none" xmlns="http://www.w3.org/2000/svg">
<path d="M19 0C8.50659 0 0 8.50659 0 19C0 29.4934 8.50659 38 19 38C29.4934 38 38 29.4934 38 19C38 8.50659 29.4934 0 19 0ZM23.5459 7.09948C25.0387 7.11325 26.4441 7.78262 27.7648 9.10338C29.2314 10.6046 30.0731 12.5216 29.5252 14.737C29.2121 15.911 28.4703 17.1105 27.2963 18.3366C23.7403 21.8243 20.5427 25.0735 16.4557 29.1378C15.6739 29.9059 14.2773 30.8436 12.8561 30.9005C11.6741 30.8913 10.7212 30.4053 9.84095 29.5298C8.90448 28.5814 8.21196 27.3481 8.31484 25.8119C8.44528 24.7162 8.9806 23.6989 9.91984 22.7597L19.0395 13.6423C20.3872 12.3064 22.2843 11.2723 24.0863 12.819C25.7157 14.5069 24.675 16.3341 23.2259 17.8287L14.8113 26.2038L13.2063 24.5594L21.5815 16.1843C21.964 15.8002 22.7456 15.1284 22.4419 14.4239C22.0461 14.0666 21.0981 14.8671 20.6815 15.2844L11.5642 24.404C11.1083 24.8633 10.7117 25.346 10.6249 26.0461C10.5466 26.6461 10.8198 27.2592 11.4459 27.8853C12.6598 29.0112 13.5047 28.6896 14.8113 27.4957C18.2878 24.0191 21.0779 21.2593 24.6546 17.6918C25.8303 16.516 26.6801 15.775 27.2963 14.1502C27.7823 12.3188 25.9016 9.71517 23.7732 9.4164C22.3763 9.28606 21.1581 10.2033 20.1342 11.1768L10.154 21.1547L8.51197 19.552L18.4898 9.53249C20.0551 7.99327 21.6399 7.18472 23.2444 7.10647C23.3447 7.10157 23.4464 7.09859 23.5459 7.09948Z" fill="#4B65A2"/>
</svg>
