<svg width="29" height="29" viewBox="0 0 29 29" fill="none" xmlns="http://www.w3.org/2000/svg">
<g clip-path="url(#clip0_529_1318)">
<path d="M14.5 -0.00146484C6.49187 -0.00146484 0 6.4904 0 14.4985C0 22.5067 6.49187 28.9985 14.5 28.9985C22.5081 28.9985 29 22.5067 29 14.4985C29 6.4904 22.5081 -0.00146484 14.5 -0.00146484ZM17.9692 5.41656C19.1085 5.42707 20.181 5.9379 21.1889 6.94585C22.3082 8.09154 22.9506 9.55447 22.5324 11.2452C22.2935 12.1411 21.7273 13.0565 20.8314 13.9923C18.1176 16.6539 15.6773 19.1336 12.5583 22.2353C11.9617 22.8215 10.8958 23.5371 9.81123 23.5805C8.90919 23.5735 8.18199 23.2025 7.5102 22.5344C6.79552 21.8106 6.26702 20.8694 6.34554 19.6971C6.44508 18.8609 6.85362 18.0845 7.5704 17.3677L14.5301 10.4098C15.5587 9.39026 17.0064 8.60105 18.3817 9.78144C19.6252 11.0696 18.8309 12.464 17.725 13.6047L11.3034 19.9962L10.0785 18.7412L16.4701 12.3497C16.762 12.0566 17.3585 11.5439 17.1267 11.0063C16.8247 10.7336 16.1012 11.3445 15.7833 11.6629L8.82533 18.6227C8.47735 18.9732 8.17474 19.3416 8.10847 19.8758C8.04873 20.3337 8.25722 20.8016 8.73507 21.2794C9.66145 22.1386 10.3062 21.8932 11.3033 20.9821C13.9565 18.3289 16.0858 16.2227 18.8153 13.5002C19.7126 12.6029 20.3611 12.0373 20.8314 10.7973C21.2023 9.39975 19.767 7.41275 18.1427 7.18473C17.0766 7.08526 16.147 7.78523 15.3656 8.52818L7.74914 16.1429L6.49598 14.9198L14.1106 7.27333C15.3052 6.09866 16.5147 5.48161 17.7391 5.4219C17.8157 5.41815 17.8933 5.41588 17.9692 5.41656Z" fill="#4B65A2"/>
</g>
<defs>
<clipPath id="clip0_529_1318">
<rect width="29" height="29" fill="white" transform="translate(0 -0.00146484)"/>
</clipPath>
</defs>
</svg>
