<svg width="29" height="30" viewBox="0 0 29 30" fill="none" xmlns="http://www.w3.org/2000/svg">
<g clip-path="url(#clip0_529_1327)">
<path d="M14.5 0.748291C6.49187 0.748291 0 7.24016 0 15.2483C0 23.2564 6.49187 29.7483 14.5 29.7483C22.5081 29.7483 29 23.2564 29 15.2483C29 7.24016 22.5081 0.748291 14.5 0.748291ZM17.9692 6.16631C19.1085 6.17683 20.181 6.68766 21.1889 7.6956C22.3082 8.8413 22.9506 10.3042 22.5324 11.995C22.2935 12.8909 21.7273 13.8063 20.8314 14.742C18.1176 17.4037 15.6773 19.8833 12.5583 22.9851C11.9617 23.5712 10.8958 24.2868 9.81123 24.3303C8.90919 24.3232 8.18199 23.9523 7.5102 23.2842C6.79552 22.5604 6.26702 21.6192 6.34554 20.4469C6.44508 19.6106 6.85362 18.8343 7.5704 18.1175L14.5301 11.1596C15.5587 10.14 17.0064 9.3508 18.3817 10.5312C19.6252 11.8194 18.8309 13.2138 17.725 14.3544L11.3034 20.746L10.0785 19.491L16.4701 13.0995C16.762 12.8063 17.3585 12.2936 17.1267 11.756C16.8247 11.4833 16.1012 12.0942 15.7833 12.4127L8.82533 19.3724C8.47735 19.7229 8.17474 20.0913 8.10847 20.6256C8.04873 21.0835 8.25722 21.5514 8.73507 22.0292C9.66145 22.8884 10.3062 22.643 11.3033 21.7318C13.9565 19.0786 16.0858 16.9725 18.8153 14.2499C19.7126 13.3526 20.3611 12.7871 20.8314 11.5471C21.2023 10.1495 19.767 8.1625 18.1427 7.93449C17.0766 7.83502 16.147 8.53498 15.3656 9.27794L7.74914 16.8926L6.49598 15.6696L14.1106 8.02309C15.3052 6.84842 16.5147 6.23137 17.7391 6.17165C17.8157 6.16791 17.8933 6.16564 17.9692 6.16631Z" fill="#4B65A2"/>
</g>
<defs>
<clipPath id="clip0_529_1327">
<rect width="29" height="29" fill="white" transform="translate(0 0.748291)"/>
</clipPath>
</defs>
</svg>
