<svg width="29" height="30" viewBox="0 0 29 30" fill="none" xmlns="http://www.w3.org/2000/svg">
<g clip-path="url(#clip0_529_1309)">
<path d="M14.5 0.248657C6.49187 0.248657 0 6.74052 0 14.7487C0 22.7568 6.49187 29.2487 14.5 29.2487C22.5081 29.2487 29 22.7568 29 14.7487C29 6.74052 22.5081 0.248657 14.5 0.248657ZM17.9692 5.66668C19.1085 5.67719 20.181 6.18803 21.1889 7.19597C22.3082 8.34166 22.9506 9.80459 22.5324 11.4953C22.2935 12.3913 21.7273 13.3067 20.8314 14.2424C18.1176 16.904 15.6773 19.3837 12.5583 22.4854C11.9617 23.0716 10.8958 23.7872 9.81123 23.8306C8.90919 23.8236 8.18199 23.4527 7.5102 22.7846C6.79552 22.0608 6.26702 21.1196 6.34554 19.9472C6.44508 19.111 6.85362 18.3346 7.5704 17.6179L14.5301 10.6599C15.5587 9.64038 17.0064 8.85117 18.3817 10.0316C19.6252 11.3197 18.8309 12.7141 17.725 13.8548L11.3034 20.2463L10.0785 18.9914L16.4701 12.5998C16.762 12.3067 17.3585 11.794 17.1267 11.2564C16.8247 10.9837 16.1012 11.5946 15.7833 11.9131L8.82533 18.8728C8.47735 19.2233 8.17474 19.5917 8.10847 20.1259C8.04873 20.5838 8.25722 21.0518 8.73507 21.5296C9.66145 22.3888 10.3062 22.1433 11.3033 21.2322C13.9565 18.579 16.0858 16.4729 18.8153 13.7503C19.7126 12.853 20.3611 12.2875 20.8314 11.0475C21.2023 9.64988 19.767 7.66287 18.1427 7.43486C17.0766 7.33539 16.147 8.03535 15.3656 8.77831L7.74914 16.393L6.49598 15.1699L14.1106 7.52345C15.3052 6.34878 16.5147 5.73174 17.7391 5.67202C17.8157 5.66827 17.8933 5.666 17.9692 5.66668Z" fill="#4B65A2"/>
</g>
<defs>
<clipPath id="clip0_529_1309">
<rect width="29" height="29" fill="white" transform="translate(0 0.248657)"/>
</clipPath>
</defs>
</svg>
