<svg width="29" height="30" viewBox="0 0 29 30" fill="none" xmlns="http://www.w3.org/2000/svg">
<g clip-path="url(#clip0_529_1255)">
<path d="M14.5 0.749756C6.49187 0.749756 0 7.24162 0 15.2498C0 23.2579 6.49187 29.7498 14.5 29.7498C22.5081 29.7498 29 23.2579 29 15.2498C29 7.24162 22.5081 0.749756 14.5 0.749756ZM17.9692 6.16778C19.1085 6.17829 20.181 6.68913 21.1889 7.69707C22.3082 8.84276 22.9506 10.3057 22.5324 11.9964C22.2935 12.8924 21.7273 13.8078 20.8314 14.7435C18.1176 17.4051 15.6773 19.8848 12.5583 22.9865C11.9617 23.5727 10.8958 24.2883 9.81123 24.3317C8.90919 24.3247 8.18199 23.9538 7.5102 23.2857C6.79552 22.5619 6.26702 21.6207 6.34554 20.4483C6.44508 19.6121 6.85362 18.8357 7.5704 18.119L14.5301 11.161C15.5587 10.1415 17.0064 9.35227 18.3817 10.5327C19.6252 11.8208 18.8309 13.2152 17.725 14.3559L11.3034 20.7474L10.0785 19.4925L16.4701 13.1009C16.762 12.8078 17.3585 12.2951 17.1267 11.7575C16.8247 11.4848 16.1012 12.0957 15.7833 12.4142L8.82533 19.3739C8.47735 19.7244 8.17474 20.0928 8.10847 20.627C8.04873 21.0849 8.25722 21.5529 8.73507 22.0307C9.66145 22.8899 10.3062 22.6444 11.3033 21.7333C13.9565 19.0801 16.0858 16.9739 18.8153 14.2514C19.7126 13.3541 20.3611 12.7885 20.8314 11.5486C21.2023 10.151 19.767 8.16397 18.1427 7.93596C17.0766 7.83649 16.147 8.53645 15.3656 9.2794L7.74914 16.8941L6.49598 15.671L14.1106 8.02455C15.3052 6.84988 16.5147 6.23283 17.7391 6.17312C17.8157 6.16937 17.8933 6.1671 17.9692 6.16778Z" fill="#4B65A2"/>
</g>
<defs>
<clipPath id="clip0_529_1255">
<rect width="29" height="29" fill="white" transform="translate(0 0.749756)"/>
</clipPath>
</defs>
</svg>
