<svg width="29" height="30" viewBox="0 0 29 30" fill="none" xmlns="http://www.w3.org/2000/svg">
<g clip-path="url(#clip0_529_1264)">
<path d="M14.5 0.499634C6.49187 0.499634 0 6.9915 0 14.9996C0 23.0078 6.49187 29.4996 14.5 29.4996C22.5081 29.4996 29 23.0078 29 14.9996C29 6.9915 22.5081 0.499634 14.5 0.499634ZM17.9692 5.91766C19.1085 5.92817 20.181 6.439 21.1889 7.44695C22.3082 8.59264 22.9506 10.0556 22.5324 11.7463C22.2935 12.6422 21.7273 13.5576 20.8314 14.4934C18.1176 17.155 15.6773 19.6347 12.5583 22.7364C11.9617 23.3226 10.8958 24.0382 9.81123 24.0816C8.90919 24.0746 8.18199 23.7036 7.5102 23.0355C6.79552 22.3117 6.26702 21.3705 6.34554 20.1982C6.44508 19.362 6.85362 18.5856 7.5704 17.8688L14.5301 10.9109C15.5587 9.89136 17.0064 9.10215 18.3817 10.2825C19.6252 11.5707 18.8309 12.9651 17.725 14.1058L11.3034 20.4973L10.0785 19.2423L16.4701 12.8508C16.762 12.5577 17.3585 12.045 17.1267 11.5074C16.8247 11.2347 16.1012 11.8456 15.7833 12.164L8.82533 19.1238C8.47735 19.4743 8.17474 19.8427 8.10847 20.3769C8.04873 20.8348 8.25722 21.3027 8.73507 21.7805C9.66145 22.6397 10.3062 22.3943 11.3033 21.4832C13.9565 18.83 16.0858 16.7238 18.8153 14.0013C19.7126 13.104 20.3611 12.5384 20.8314 11.2984C21.2023 9.90085 19.767 7.91385 18.1427 7.68583C17.0766 7.58636 16.147 8.28633 15.3656 9.02928L7.74914 16.644L6.49598 15.4209L14.1106 7.77443C15.3052 6.59976 16.5147 5.98271 17.7391 5.923C17.8157 5.91925 17.8933 5.91698 17.9692 5.91766Z" fill="#4B65A2"/>
</g>
<defs>
<clipPath id="clip0_529_1264">
<rect width="29" height="29" fill="white" transform="translate(0 0.499634)"/>
</clipPath>
</defs>
</svg>
