<svg width="30" height="29" viewBox="0 0 30 29" fill="none" xmlns="http://www.w3.org/2000/svg">
<path fill-rule="evenodd" clip-rule="evenodd" d="M15 28.387C16.9698 28.387 18.9204 28.0248 20.7403 27.3213C22.5601 26.6177 24.2137 25.5865 25.6066 24.2865C26.9995 22.9864 28.1044 21.4431 28.8582 19.7445C29.612 18.046 30 16.2255 30 14.387C30 12.5485 29.612 10.728 28.8582 9.0294C28.1044 7.33084 26.9995 5.78749 25.6066 4.48747C24.2137 3.18745 22.5601 2.15622 20.7403 1.45265C18.9204 0.749083 16.9698 0.386963 15 0.386963C11.0218 0.386963 7.20644 1.86196 4.3934 4.48747C1.58035 7.11298 0 10.6739 0 14.387C0 18.1 1.58035 21.6609 4.3934 24.2865C7.20644 26.912 11.0218 28.387 15 28.387ZM14.6133 20.0492L22.9467 10.7159L20.3867 8.72474L13.22 16.7499L9.51167 13.2872L7.155 15.4867L12.155 20.1534L13.445 21.3574L14.6133 20.0492Z" fill="#4B65A2"/>
</svg>
